<?xml version="1.0" encoding="UTF-8" standalone="no"?>
<!DOCTYPE svg PUBLIC "-//W3C//DTD SVG 1.1//EN" "http://www.w3.org/Graphics/SVG/1.1/DTD/svg11.dtd">
<svg width="100%" height="100%" viewBox="0 0 960 960" version="1.1" xmlns="http://www.w3.org/2000/svg" xmlns:xlink="http://www.w3.org/1999/xlink" xml:space="preserve" xmlns:serif="http://www.serif.com/" style="fill-rule:evenodd;clip-rule:evenodd;stroke-linejoin:round;stroke-miterlimit:1.5;">
    <g transform="matrix(1.21953,0,0,1.21953,-105.373,-95.0998)">
        <g transform="matrix(1,0,0,1,-17.5778,-49.5874)">
            <path d="M147.73,333.142C147.73,333.142 130.622,323.395 130.622,315.11C130.622,288.719 142.305,199.865 147.73,174.798C149.03,168.787 157.139,165.894 163.173,164.702C186.898,160.014 247.377,148.086 290.081,146.67C380.682,143.664 616.408,143.664 706.78,146.67C749.03,148.075 808.869,160.014 832.31,164.702C838.252,165.891 846.157,168.873 847.427,174.798C852.797,199.865 864.534,288.719 864.534,315.11C864.534,323.395 855.71,332.934 847.427,333.142C727.959,336.148 267.197,336.148 147.73,333.142C139.447,332.934 130.622,315.11 130.622,315.11" style="fill:none;stroke:black;stroke-width:20.5px;"/>
        </g>
        <g transform="matrix(1,0,0,1,-17.5778,-49.5874)">
            <path d="M147.73,914.759C142.363,770.636 131.628,482.389 130.622,392.45C130.545,385.598 134.841,375.291 141.693,375.126C261.453,372.238 728.708,371.913 849.182,375.126C857.392,375.345 864.595,386.186 864.534,394.399C863.868,484.338 851.412,771.285 845.184,914.759" style="fill:none;stroke:black;stroke-width:20.5px;"/>
        </g>
        <g transform="matrix(1,0,0,1,-17.5778,-49.5874)">
            <path d="M289.082,144.415C293.079,208.076 297.076,271.736 301.073,335.396" style="fill:none;stroke:black;stroke-width:20.5px;"/>
        </g>
        <g transform="matrix(1,0,0,1,-17.5778,-49.5874)">
            <path d="M702.783,144.415C698.453,208.076 694.122,271.736 689.792,335.396" style="fill:none;stroke:black;stroke-width:20.5px;"/>
        </g>
        <g transform="matrix(1,0,0,1,-17.5778,-49.5874)">
            <path d="M301.073,375.126C304.667,397.045 311.855,440.884 338.046,446.411C394.339,458.292 580.205,458.292 638.829,446.411C667.457,440.61 682.347,396.954 689.792,375.126" style="fill:none;stroke:black;stroke-width:20.5px;"/>
        </g>
    </g>
</svg>
