<?xml version="1.0" encoding="UTF-8" standalone="no"?>
<!DOCTYPE svg PUBLIC "-//W3C//DTD SVG 1.1//EN" "http://www.w3.org/Graphics/SVG/1.1/DTD/svg11.dtd">
<svg width="100%" height="100%" viewBox="0 0 500 400" version="1.1" xmlns="http://www.w3.org/2000/svg" xmlns:xlink="http://www.w3.org/1999/xlink" xml:space="preserve" xmlns:serif="http://www.serif.com/" style="fill-rule:evenodd;clip-rule:evenodd;stroke-linejoin:round;stroke-miterlimit:2;">
    <g transform="matrix(3.22275e-17,-0.526316,2.5,1.53081e-16,1.57772e-30,200)">
        <rect x="0" y="0" width="380" height="200" style="fill:url(#_Linear1);"/>
    </g>
    <g transform="matrix(3.22275e-17,0.526316,2.5,-1.53081e-16,1.57772e-30,200)">
        <rect x="0" y="0" width="380" height="200" style="fill:url(#_Linear2);"/>
    </g>
    <g transform="matrix(0.857143,0,0,0.857143,41.367,64.8564)">
        <g transform="matrix(1.43307,0,0,1.43307,131.446,71.7201)">
            <path d="M94,-54C164.093,-54 221,2.907 221,73C221,143.093 164.093,200 94,200C23.907,200 -33,143.093 -33,73C-33,2.907 23.907,-54 94,-54ZM3.869,-14.409C-18.068,8.205 -31.579,39.037 -31.579,73C-31.579,142.309 24.691,198.579 94,198.579C163.309,198.579 219.579,142.309 219.579,73C219.579,39.037 206.068,8.205 184.131,-14.409C179.22,-14.409 177.303,-16.243 176.326,-17.137C154.37,-37.224 126.445,-49.282 94,-49.116C61.555,-49.282 33.63,-37.224 11.674,-17.137C10.697,-16.243 8.78,-14.409 3.869,-14.409Z" style="fill:rgb(129,129,129);fill-opacity:0.32;"/>
        </g>
        <g transform="matrix(0.916018,0,0,0.916018,180.049,109.465)">
            <path d="M94,-54C164.093,-54 221,2.907 221,73C221,143.093 164.093,200 94,200C23.907,200 -33,143.093 -33,73C-33,2.907 23.907,-54 94,-54ZM3.869,-14.409C-18.068,8.205 -31.579,39.037 -31.579,73C-31.579,142.309 24.691,198.579 94,198.579C163.309,198.579 219.579,142.309 219.579,73C219.579,39.037 206.068,8.205 184.131,-14.409C179.22,-14.409 177.303,-16.243 176.326,-17.137C154.37,-37.224 126.445,-49.282 94,-49.116C61.555,-49.282 33.63,-37.224 11.674,-17.137C10.697,-16.243 8.78,-14.409 3.869,-14.409Z" style="fill:rgb(129,129,129);fill-opacity:0.32;"/>
        </g>
        <g transform="matrix(0.404207,0,0,0.404207,228.16,146.827)">
            <path d="M94,-54C164.093,-54 221,2.907 221,73C221,143.093 164.093,200 94,200C23.907,200 -33,143.093 -33,73C-33,2.907 23.907,-54 94,-54ZM3.869,-14.409C-18.068,8.205 -31.579,39.037 -31.579,73C-31.579,142.309 24.691,198.579 94,198.579C163.309,198.579 219.579,142.309 219.579,73C219.579,39.037 206.068,8.205 184.131,-14.409C179.22,-14.409 177.303,-16.243 176.326,-17.137C154.37,-37.224 126.445,-49.282 94,-49.116C61.555,-49.282 33.63,-37.224 11.674,-17.137C10.697,-16.243 8.78,-14.409 3.869,-14.409Z" style="fill:rgb(129,129,129);fill-opacity:0.32;"/>
        </g>
    </g>
    <g id="Grünbeck_Wasseraufbereitung_Logo_2014" transform="matrix(1.88724,0,0,1.88724,248.715,37.9507)">
        <g transform="matrix(1,0,0,1,-63.85,-16.4)">
            <path d="M12,16.5C12,20.2 10.9,23.2 7.2,23.2C3.5,23.2 2.4,20.2 2.4,16.5C2.4,12.9 3.5,9.8 7.2,9.8C10.9,9.8 12,12.8 12,16.5M14.3,24.4L14.3,14.3C14.2,11.4 12.6,7.7 7.1,7.7C2.3,7.6 0,11.4 0,16.5C0,21.6 2.1,25.3 7.1,25.3C9.6,25.3 10.9,24.4 12.1,22.8L12.1,24.5C12.1,27.9 10.7,30.7 7.1,30.7C5.1,30.7 2.8,29.9 1.5,28.8L1.5,31.3C2.3,31.9 4.4,32.8 7.1,32.8C11.5,32.8 14.3,30.2 14.3,24.4" style="fill:rgb(93,93,93);fill-rule:nonzero;"/>
            <path d="M76.4,16.1C76.4,20.3 74.9,23.2 71.3,23.2C68,23.2 66.8,21.3 66.8,16.1C66.8,11.9 68.1,9.2 71.8,9.2C75.3,9.2 76.4,11.9 76.4,16.1M78.8,16.1C78.8,10.9 76.8,6.9 72,6.9C69.8,6.9 68.1,7.7 66.9,9.9L66.9,0L64.6,0L64.6,15.3C64.6,20.5 65.1,25.2 71.4,25.2C76,25.3 78.8,21.6 78.8,16.1" style="fill:rgb(93,93,93);fill-rule:nonzero;"/>
            <path d="M93.1,12C93.1,13.4 92,14.3 89.6,14.9L86,15.9C85.2,16.1 84.5,16.5 84,16.9L84,16.6C84,12 86.2,9.1 89.5,9.1C91.9,9.1 93.1,10.2 93.1,12M95.6,11.8C95.6,9 93.8,7 89.6,7C85.1,7 81.7,10.7 81.7,16.2C81.7,21.7 84.3,25.4 89.3,25.4C91.8,25.4 93.8,24.8 95.5,24L95.5,21.8C93.7,22.7 91.6,23.3 89.3,23.3C86.1,23.3 84.8,21.1 84.8,20C84.8,19 85.4,18.3 86.6,18L90.4,17C93.7,16.1 95.6,14.7 95.6,11.8" style="fill:rgb(93,93,93);fill-rule:nonzero;"/>
            <path d="M109.9,22.4C108.5,23 107.6,23.2 105.9,23.2C102.3,23.2 100.7,20.3 100.7,16.1C100.7,11.9 102.2,9 105.9,9C107.6,9 108.4,9.2 109.9,9.8L109.9,7.7C108.5,7.1 107.4,7 105.9,7C101.1,7 98.4,10.5 98.4,16.2C98.4,21.8 101.2,25.4 105.9,25.4C107.3,25.4 108.4,25.3 109.9,24.7L109.9,22.4Z" style="fill:rgb(93,93,93);fill-rule:nonzero;"/>
            <path d="M124.2,12C124.2,13.4 122.9,14.6 120.6,15.2L117.6,16C116.8,16.2 115.9,16.6 115.5,17.1L115.5,16.7C115.5,12.2 118.3,9.3 121.2,9.3C123,9.5 124.2,10.5 124.2,12M126.5,11.8C126.5,8.9 124.6,7.4 121.2,7.4C118.5,7.4 116.5,8.8 115.5,11.4L115.5,0.4L113.2,0.4L113.2,25.3L115.5,25.3L115.5,23.8C115.5,21.5 115.6,18.7 117.9,18.1L119.2,17.8C121.3,20.1 123.4,23 124.8,25.3L127.7,25.3C126.2,22.8 123.2,18.7 121.6,17.2C124.7,16.2 126.5,14.7 126.5,11.8" style="fill:rgb(93,93,93);fill-rule:nonzero;"/>
            <path d="M18.3,25.3L20.6,25.3L20.6,14.7C20.6,11.3 21.9,9.7 24.8,9.7C25.4,9.7 25.9,9.8 26.6,10L26.6,7.5C26.3,7.4 25.8,7.4 25.1,7.4C17.9,7.4 18.4,14.5 18.4,14.5L18.4,25.3L18.3,25.3Z" style="fill:rgb(93,93,93);fill-rule:nonzero;"/>
            <path d="M43,17.7L43,7.4L40.7,7.4L40.7,16.5C40.7,19.5 40.6,19.9 40.4,20.7C40,22 38.4,23 36.6,23L35.8,23C34,23 32.4,22 32,20.7C31.8,19.9 31.7,19.5 31.7,16.5L31.7,7.4L29.4,7.4L29.4,17.7C29.4,20 29.5,25.3 35.8,25.3L36.7,25.3C42.9,25.3 43,20 43,17.7" style="fill:rgb(93,93,93);fill-rule:nonzero;"/>
            <path d="M46.8,14.7L46.8,25L49.1,25L49.1,15.9C49.1,12.9 49.2,12.2 49.4,11.4C49.8,10.1 51.4,9.1 53.3,9.1L54.3,9.1C56.1,9.1 57.8,10.1 58.2,11.4C58.4,12.2 58.5,12.8 58.5,15.9L58.5,25L60.8,25L60.8,14.7C60.8,12.4 60.7,6.8 54.4,6.8L53.2,6.8C47,6.8 46.8,12.4 46.8,14.7" style="fill:rgb(93,93,93);fill-rule:nonzero;"/>
            <path d="M36.2,5.7C37.1,5.7 37.8,5 37.8,4.1C37.8,3.2 37.1,2.5 36.2,2.5C35.3,2.5 34.6,3.2 34.6,4.1C34.6,5 35.3,5.7 36.2,5.7" style="fill:rgb(128,177,79);fill-rule:nonzero;"/>
            <path d="M36.2,10.6C37.1,10.6 37.8,9.9 37.8,9C37.8,8.1 37.1,7.4 36.2,7.4C35.3,7.4 34.6,8.1 34.6,9C34.6,9.9 35.3,10.6 36.2,10.6" style="fill:rgb(41,155,219);fill-rule:nonzero;"/>
        </g>
    </g>
    <defs>
        <linearGradient id="_Linear1" x1="0" y1="0" x2="1" y2="0" gradientUnits="userSpaceOnUse" gradientTransform="matrix(380,0,0,200,0,100)"><stop offset="0" style="stop-color:rgb(77,84,90);stop-opacity:0.15"/><stop offset="0.64" style="stop-color:rgb(83,90,96);stop-opacity:0.28"/><stop offset="0.83" style="stop-color:rgb(99,105,111);stop-opacity:0.62"/><stop offset="1" style="stop-color:rgb(118,123,129);stop-opacity:1"/></linearGradient>
        <linearGradient id="_Linear2" x1="0" y1="0" x2="1" y2="0" gradientUnits="userSpaceOnUse" gradientTransform="matrix(380,0,0,200,0,100)"><stop offset="0" style="stop-color:rgb(77,84,90);stop-opacity:0.15"/><stop offset="0.64" style="stop-color:rgb(83,90,96);stop-opacity:0.28"/><stop offset="0.83" style="stop-color:rgb(99,105,111);stop-opacity:0.62"/><stop offset="1" style="stop-color:rgb(118,123,129);stop-opacity:1"/></linearGradient>
    </defs>
</svg>
