<?xml version="1.0" encoding="UTF-8" standalone="no"?>
<!DOCTYPE svg PUBLIC "-//W3C//DTD SVG 1.1//EN" "http://www.w3.org/Graphics/SVG/1.1/DTD/svg11.dtd">
<svg width="100%" height="100%" viewBox="0 0 24 24" version="1.1" xmlns="http://www.w3.org/2000/svg" xmlns:xlink="http://www.w3.org/1999/xlink" xml:space="preserve" xmlns:serif="http://www.serif.com/" style="fill-rule:evenodd;clip-rule:evenodd;stroke-linejoin:round;stroke-miterlimit:2;">
    <path d="M3,2L21,2L19,20.23C18.87,21.23 18,22 17,22L7,22C5.97,22 5.13,21.23 5,20.23L3,2ZM18.32,8L18.77,4L5.23,4L5.67,8L18.32,8Z"/>
    <g transform="matrix(0.441176,0,0,0.441176,6.70588,9.45588)">
        <path d="M18.5,3.5L3.5,18.5L5.5,20.5L20.5,5.5M7,4C5.354,4 4,5.354 4,7C4,8.646 5.354,10 7,10C8.646,10 10,8.646 10,7C10,5.354 8.646,4 7,4M17,14C15.354,14 14,15.354 14,17C14,18.646 15.354,20 17,20C18.646,20 20,18.646 20,17C20,15.354 18.646,14 17,14Z" style="fill:white;fill-rule:nonzero;"/>
    </g>
</svg>
