<?xml version="1.0" encoding="UTF-8" standalone="no"?>
<!DOCTYPE svg PUBLIC "-//W3C//DTD SVG 1.1//EN" "http://www.w3.org/Graphics/SVG/1.1/DTD/svg11.dtd">
<svg width="100%" height="100%" viewBox="0 0 24 24" version="1.1" xmlns="http://www.w3.org/2000/svg" xmlns:xlink="http://www.w3.org/1999/xlink" xml:space="preserve" xmlns:serif="http://www.serif.com/" style="fill-rule:evenodd;clip-rule:evenodd;stroke-linejoin:round;stroke-miterlimit:2;">
    <path d="M7.1,18.37C8.23,19.25 9.58,19.82 11,20L11,22C9.04,21.79 7.18,21 5.67,19.74L7.1,18.37Z"/>
    <path d="M13,2.03C17.73,2.5 21.5,6.25 21.95,11C22.5,16.5 18.5,21.38 13,21.93L13,19.93C16.64,19.5 19.5,16.61 19.96,12.97C20.5,8.58 17.39,4.59 13,4.05L13,2.03Z"/>
    <path d="M2.06,13L4.06,13C4.24,14.42 4.81,15.77 5.69,16.9L4.27,18.33C3.03,16.81 2.26,14.96 2.06,13Z"/>
    <path d="M4.26,5.67L5.69,7.1C4.8,8.23 4.24,9.58 4.05,11L2.05,11C2.25,9.04 3,7.19 4.26,5.67Z"/>
    <path d="M11,2.06L11,4.06C9.57,4.26 8.22,4.84 7.1,5.74L5.67,4.26C7.19,3 9.05,2.25 11,2.06Z"/>
    <g transform="matrix(0.636364,0,0,0.636364,4.36364,4.36364)">
        <path d="M12,18C8.708,18 6,15.292 6,12C6,11 6.25,10.03 6.7,9.2L5.24,7.74C4.46,8.97 4,10.43 4,12C4,16.389 7.611,20 12,20L12,23L16,19L12,15M12,4L12,1L8,5L12,9L12,6C15.292,6 18,8.708 18,12C18,13 17.75,13.97 17.3,14.8L18.76,16.26C19.54,15.03 20,13.57 20,12C20,7.611 16.389,4 12,4Z" style="fill-rule:nonzero;"/>
    </g>
</svg>
