<?xml version="1.0" encoding="UTF-8" standalone="no"?><!DOCTYPE svg PUBLIC "-//W3C//DTD SVG 1.1//EN" "http://www.w3.org/Graphics/SVG/1.1/DTD/svg11.dtd"><svg width="100%" height="100%" viewBox="0 0 125 125" version="1.1" xmlns="http://www.w3.org/2000/svg" xmlns:xlink="http://www.w3.org/1999/xlink" xml:space="preserve" xmlns:serif="http://www.serif.com/" style="fill-rule:evenodd;clip-rule:evenodd;stroke-linejoin:round;stroke-miterlimit:2;"><clipPath id="_clip1"><rect id="Linie-groß-breit" serif:id="Linie groß/breit" x="22.439" y="0" width="102.561" height="68.955"/></clipPath><g clip-path="url(#_clip1)"><path d="M24.294,0c-1.215,-5.782 -1.855,-11.781 -1.855,-17.929c-0,-47.953 38.931,-86.884 86.884,-86.884c47.953,-0 86.884,38.931 86.884,86.884c0,47.953 -38.931,86.884 -86.884,86.884c-20.428,0 -39.219,-7.065 -54.06,-18.883l6.552,-0c13.461,9.426 29.844,14.959 47.508,14.959c45.787,-0 82.96,-37.173 82.96,-82.96c-0,-45.787 -37.173,-82.96 -82.96,-82.96c-45.787,0 -82.96,37.173 -82.96,82.96c0,6.154 0.672,12.152 1.946,17.929l-4.015,0Z"/></g><path d="M28.841,9.841c11.194,33.176 42.59,57.096 79.529,57.096c5.673,-0 11.216,-0.564 16.568,-1.639c-0.033,0.764 -0.081,1.524 -0.142,2.281c-5.023,0.905 -10.193,1.376 -15.473,1.376c-37.868,0 -70.111,-24.278 -81.999,-58.111c0.501,-0.341 1.006,-0.675 1.517,-1.003Z"/><path id="Linie-klein-breit" serif:id="Linie klein/breit" d="M116.16,30.456c-2.131,0.287 -4.308,0.435 -6.519,0.435c-11.613,0 -22.278,-4.09 -30.634,-10.908l6.363,-0c6.993,4.527 15.327,7.156 24.271,7.156c1.432,0 2.849,-0.067 4.25,-0.2c0.794,1.145 1.551,2.318 2.269,3.517Z"/><clipPath id="_clip2"><rect id="Grünbeck_Wasseraufbereitung_Logo_2014" x="10.73" y="71.718" width="103.541" height="26.595"/></clipPath><g clip-path="url(#_clip2)"><path d="M20.459,85.096c0,3 -0.891,5.432 -3.892,5.432c-3,0 -3.891,-2.432 -3.891,-5.432c-0,-2.919 0.891,-5.432 3.891,-5.432c3.001,-0 3.892,2.432 3.892,5.432m1.865,6.405l0,-8.189c-0.081,-2.351 -1.378,-5.351 -5.838,-5.351c-3.891,-0.081 -5.756,3 -5.756,7.135c-0,4.135 1.702,7.135 5.756,7.135c2.027,0 3.082,-0.73 4.054,-2.027l0,1.378c0,2.757 -1.135,5.027 -4.054,5.027c-1.621,0 -3.486,-0.648 -4.54,-1.54l-0,2.027c0.649,0.486 2.351,1.216 4.54,1.216c3.568,0 5.838,-2.108 5.838,-6.811" style="fill:#495156;fill-rule:nonzero;"/><path d="M72.676,84.772c-0,3.405 -1.217,5.756 -4.135,5.756c-2.676,0 -3.649,-1.54 -3.649,-5.756c-0,-3.406 1.054,-5.595 4.054,-5.595c2.838,0 3.73,2.189 3.73,5.595m1.946,-0c-0,-4.217 -1.622,-7.46 -5.514,-7.46c-1.784,0 -3.162,0.649 -4.135,2.433l-0,-8.027l-1.865,-0l0,12.405c0,4.216 0.406,8.027 5.514,8.027c3.729,0.081 6,-2.919 6,-7.378" style="fill:#495156;fill-rule:nonzero;"/><path d="M86.216,81.447c0,1.135 -0.892,1.865 -2.838,2.352l-2.919,0.81c-0.648,0.163 -1.216,0.487 -1.621,0.811l-0,-0.243c-0,-3.73 1.784,-6.081 4.459,-6.081c1.946,-0 2.919,0.892 2.919,2.351m2.027,-0.162c0,-2.27 -1.459,-3.892 -4.865,-3.892c-3.648,0 -6.405,3 -6.405,7.46c-0,4.459 2.108,7.459 6.162,7.459c2.027,0 3.649,-0.486 5.027,-1.135l0,-1.784c-1.459,0.73 -3.162,1.216 -5.027,1.216c-2.594,0 -3.648,-1.783 -3.648,-2.675c-0,-0.811 0.486,-1.379 1.459,-1.622l3.081,-0.811c2.676,-0.729 4.216,-1.864 4.216,-4.216" style="fill:#495156;fill-rule:nonzero;"/><path d="M99.838,89.88c-1.135,0.486 -1.865,0.648 -3.243,0.648c-2.919,0 -4.217,-2.351 -4.217,-5.756c0,-3.406 1.217,-5.757 4.217,-5.757c1.378,-0 2.027,0.162 3.243,0.649l-0,-1.703c-1.135,-0.487 -2.027,-0.568 -3.243,-0.568c-3.892,0 -6.081,2.838 -6.081,7.46c-0,4.54 2.27,7.459 6.081,7.459c1.135,0 2.027,-0.081 3.243,-0.567l-0,-1.865Z" style="fill:#495156;fill-rule:nonzero;"/><path d="M111.433,81.447c-0,1.135 -1.055,2.108 -2.919,2.595l-2.433,0.649c-0.649,0.162 -1.378,0.486 -1.703,0.891l0,-0.324c0,-3.649 2.271,-6 4.622,-6c1.46,0.162 2.433,0.973 2.433,2.189m1.864,-0.162c0,-2.351 -1.54,-3.567 -4.297,-3.567c-2.189,-0 -3.811,1.135 -4.622,3.243l0,-8.919l-1.864,-0l-0,20.189l1.864,0l0,-1.216c0,-1.865 0.082,-4.135 1.946,-4.622l1.054,-0.243c1.703,1.865 3.406,4.216 4.541,6.081l2.351,0c-1.216,-2.027 -3.648,-5.351 -4.946,-6.567c2.514,-0.811 3.973,-2.027 3.973,-4.379" style="fill:#495156;fill-rule:nonzero;"/><path d="M25.568,92.231l1.864,0l0,-8.594c0,-2.757 1.054,-4.055 3.406,-4.055c0.486,0 0.892,0.082 1.459,0.244l0,-2.027c-0.243,-0.081 -0.648,-0.081 -1.216,-0.081c-5.838,-0 -5.432,5.756 -5.432,5.756l-0,8.757l-0.081,0Z" style="fill:#495156;fill-rule:nonzero;"/><path d="M45.595,86.069l-0,-8.351l-1.865,-0l-0,7.378c-0,2.432 -0.081,2.757 -0.244,3.405c-0.324,1.054 -1.621,1.865 -3.081,1.865l-0.648,0c-1.46,0 -2.757,-0.811 -3.081,-1.865c-0.163,-0.648 -0.244,-0.973 -0.244,-3.405l0,-7.378l-1.864,-0l-0,8.351c-0,1.865 0.081,6.162 5.189,6.162l0.729,0c5.027,0 5.109,-4.297 5.109,-6.162" style="fill:#495156;fill-rule:nonzero;"/><path d="M48.676,83.637l-0,8.351l1.865,-0l-0,-7.379c-0,-2.432 0.081,-3 0.243,-3.648c0.324,-1.054 1.621,-1.865 3.162,-1.865l0.811,-0c1.459,-0 2.838,0.811 3.162,1.865c0.162,0.648 0.243,1.135 0.243,3.648l0,7.379l1.865,-0l0,-8.351c0,-1.865 -0.081,-6.406 -5.189,-6.406l-0.973,0c-5.027,0 -5.189,4.541 -5.189,6.406" style="fill:#495156;fill-rule:nonzero;"/><path d="M40.081,76.339c0.73,0 1.297,-0.567 1.297,-1.297c0,-0.73 -0.567,-1.297 -1.297,-1.297c-0.73,-0 -1.297,0.567 -1.297,1.297c-0,0.73 0.567,1.297 1.297,1.297" style="fill:#80b14f;fill-rule:nonzero;"/><path d="M40.081,80.312c0.73,0 1.297,-0.567 1.297,-1.297c0,-0.73 -0.567,-1.297 -1.297,-1.297c-0.73,-0 -1.297,0.567 -1.297,1.297c-0,0.73 0.567,1.297 1.297,1.297" style="fill:#299bdb;fill-rule:nonzero;"/></g><path id="Linie-klein-schmal" serif:id="Linie klein/schmal" d="M64.452,0.03c0.601,0.019 1.2,0.046 1.796,0.081c6.697,16.9 23.199,28.866 42.474,28.866c2.12,0 4.206,-0.145 6.251,-0.425c0.406,0.627 0.802,1.261 1.187,1.904c-2.131,0.287 -4.308,0.435 -6.519,0.435c-20.548,0 -38.129,-12.805 -45.189,-30.861Z"/></svg>