<?xml version="1.0" encoding="UTF-8" standalone="no"?>
<!DOCTYPE svg PUBLIC "-//W3C//DTD SVG 1.1//EN" "http://www.w3.org/Graphics/SVG/1.1/DTD/svg11.dtd">
<svg width="100%" height="100%" viewBox="0 0 24 24" version="1.1" xmlns="http://www.w3.org/2000/svg" xmlns:xlink="http://www.w3.org/1999/xlink" xml:space="preserve" xmlns:serif="http://www.serif.com/" style="fill-rule:evenodd;clip-rule:evenodd;stroke-linejoin:round;stroke-miterlimit:2;">
    <path d="M12,18C8.708,18 6,15.292 6,12C6,11 6.25,10.03 6.7,9.2L5.24,7.74C4.46,8.97 4,10.43 4,12C4,16.389 7.611,20 12,20L12,23L16,19L12,15M12,4L12,1L8,5L12,9L12,6C15.292,6 18,8.708 18,12C18,13 17.75,13.97 17.3,14.8L18.76,16.26C19.54,15.03 20,13.57 20,12C20,7.611 16.389,4 12,4Z" style="fill-rule:nonzero;"/>
    <g transform="matrix(0.928571,0,0,0.928571,0.0535714,-0.5)">
        <text x="9.309px" y="16.23px" style="font-family:'ArialMT', 'Arial', sans-serif;font-size:8px;">%</text>
    </g>
</svg>
