<?xml version="1.0" encoding="UTF-8"?>
<svg width="48px" height="48px" viewBox="0 0 48 48" version="1.1" xmlns="http://www.w3.org/2000/svg" xmlns:xlink="http://www.w3.org/1999/xlink">
    <title>icon / capabilities / sensor / meter_water</title>
    <g id="Capabilities" stroke="none" stroke-width="1" fill="none" fill-rule="evenodd">
        <g id="icon-/-capabilities-/-sensor-/-meter_water" fill="#313132">
            <path d="M24.3657703,31.0827165 C24.4944736,31.0827165 24.6333378,31.1809375 24.6536594,31.3231886 C24.9686439,33.3180906 26.4792149,35.1300984 27.5833542,36.4543882 C27.8949518,36.8303375 28.1625193,37.1520959 28.3657352,37.4332111 C28.6028203,37.7583565 29.1345684,38.6017022 29.1413422,38.6118629 C29.6561557,39.4315001 29.9203362,40.4374185 29.9203362,41.6059095 C29.9203362,44.7015639 27.4038469,47.2180533 24.3081924,47.2180533 C21.212538,47.2180533 18.6926617,44.7015639 18.6926617,41.6059095 C18.6926617,40.461127 18.9432946,39.4416609 19.4174648,38.655893 C19.5495551,38.4425164 20.0575947,37.6872309 20.2946798,37.3688595 C20.4911218,37.1046789 20.7451416,36.7998551 21.0330307,36.4543882 C22.13717,35.1334853 23.6443541,33.3214775 23.9627255,31.3265755 C23.986434,31.1910983 24.1015897,31.0894904 24.2404538,31.0861034 L24.2404538,31.0861034 Z M23.986434,1 C37.2801362,1.17950732 48.0404143,12.1125189 47.9998859,25.3757386 C47.9794495,33.0505231 44.450268,40.1054993 38.3165369,44.7320463 C38.1133211,44.8844582 37.8762359,44.9589707 37.6391508,44.9589707 C37.2970708,44.9589707 36.9583778,44.8065588 36.7382273,44.5118958 C36.362278,44.0140171 36.460499,43.3095355 36.9583778,42.9335862 C42.5264915,38.7337924 45.7271408,32.3324938 45.7474624,25.3689648 C45.7813317,13.3318139 36.0168111,3.4114945 23.9830471,3.24892184 C11.9797655,3.4114945 2.21524494,13.3352008 2.24911425,25.3689648 C2.26943583,32.3324938 5.47008513,38.7337924 11.0381988,42.9335862 C11.5326907,43.3095355 11.6309117,44.017404 11.2583493,44.5118958 C10.885787,45.0063877 10.1779185,45.1046087 9.68342665,44.7320463 C3.54969555,40.1054993 0.0205139956,33.0505231 9.59573665e-05,25.3757386 C-0.0370638225,12.1125189 10.7232143,1.17950732 23.986434,1 Z M23.986434,8.32254369 C28.6603981,8.39366923 32.8601919,10.3174457 35.8847208,13.3961655 L35.8847208,13.3961655 L38.8584458,10.9812841 C39.088757,10.7950029 39.4206762,10.8187115 39.6238921,11.0320881 C39.8271079,11.2454647 39.8271079,11.5807708 39.627279,11.7975344 L39.627279,11.7975344 L36.9990209,14.6459429 C39.2581036,17.4503213 40.6365843,20.9964375 40.7348053,24.8778599 C40.8533478,29.595854 38.9837622,34.1885317 35.6002187,37.4840151 C35.1565308,37.9175422 34.4418884,37.9073814 34.0083613,37.4636935 C33.5748342,37.0200056 33.584995,36.3053633 34.0286829,35.8718362 C36.9651516,33.0132669 38.5874913,29.0268497 38.4824965,24.9354377 C38.4012102,21.6873714 37.2835231,18.7136464 35.4511937,16.3224735 L35.4511937,16.3224735 L28.2946096,24.0751573 C28.3860567,24.4070765 28.4368607,24.7559304 28.4368607,25.114945 C28.4368607,27.258872 26.6925915,29.0065281 24.5452776,29.0065281 C22.3979637,29.0065281 20.6536945,27.258872 20.6536945,25.114945 C20.6536945,22.9676311 22.3979637,21.2233619 24.5452776,21.2233619 C25.0296086,21.2233619 25.4936181,21.3114221 25.9203714,21.4739947 L25.9203714,21.4739947 L34.123517,14.8186763 C31.5155805,12.2378353 27.9457558,10.6324303 23.9830471,10.5714655 C16.0914991,10.693395 9.72068288,17.0032465 9.52085398,24.9354377 C9.41924607,29.0302366 11.0415858,33.0132669 13.9746676,35.8718362 C14.4183555,36.3053633 14.4285162,37.0166187 13.9949891,37.4636935 C13.7748387,37.6872309 13.4835626,37.8023866 13.1888997,37.8023866 C12.9043975,37.8023866 12.6232823,37.6973917 12.4031318,37.4840151 C9.0229752,34.1885317 7.15338958,29.595854 7.27193215,24.8778599 C7.50224342,15.7365345 14.8451087,8.46140784 23.986434,8.32254369 Z" id="Combined-Shape"></path>
        </g>
    </g>
</svg>